<?xml version="1.0" encoding="UTF-8" standalone="no"?>
<!-- Created with Inkscape (http://www.inkscape.org/) -->

<svg
   width="512"
   height="512"
   viewBox="0 0 512 512"
   version="1.1"
   id="svg1"
   inkscape:version="1.4.3 (0d15f75042, 2025-12-25)"
   sodipodi:docname="app_icon_light.svg"
   inkscape:export-batch-name="app_icon_light"
   inkscape:export-batch-path="/home/kira/Development/Web/timetracker_extension/src/graphics"
   xmlns:inkscape="http://www.inkscape.org/namespaces/inkscape"
   xmlns:sodipodi="http://sodipodi.sourceforge.net/DTD/sodipodi-0.dtd"
   xmlns="http://www.w3.org/2000/svg"
   xmlns:svg="http://www.w3.org/2000/svg">
  <sodipodi:namedview
     id="namedview1"
     pagecolor="#ffffff"
     bordercolor="#000000"
     borderopacity="0.25"
     inkscape:showpageshadow="2"
     inkscape:pageopacity="0.0"
     inkscape:pagecheckerboard="0"
     inkscape:deskcolor="#d1d1d1"
     inkscape:document-units="px"
     inkscape:zoom="1.06"
     inkscape:cx="259.90566"
     inkscape:cy="179.71698"
     inkscape:window-width="1556"
     inkscape:window-height="970"
     inkscape:window-x="44"
     inkscape:window-y="0"
     inkscape:window-maximized="1"
     inkscape:current-layer="mian" />
  <defs
     id="defs1">
    <rect
       x="50.559109"
       y="81.179414"
       width="233.56885"
       height="195.11544"
       id="rect2" />
    <rect
       x="34.180807"
       y="69.073713"
       width="347.50487"
       height="380.97358"
       id="rect1" />
  </defs>
  <g
     inkscape:label="main"
     inkscape:groupmode="layer"
     id="mian"
     sodipodi:insensitive="true">
    <rect
       style="fill:#ffb4ff;fill-opacity:1;stroke-width:1.00841"
       id="backgroud"
       width="512"
       height="512"
       x="0"
       y="0"
       inkscape:label="backgroud"
       sodipodi:insensitive="true" />
    <path
       d="m 144.91125,227.42969 q -19.3125,0 -27.375,-7.78125 -7.96875,-7.875 -7.96875,-26.8125 v -57.375 H 81.536249 V 122.05469 H 109.5675 V 94.585937 l 17.25,-7.5 v 34.968753 h 39.1875 v 13.40625 h -39.1875 v 57.375 q 0,11.53125 4.40625,16.21875 4.40625,4.59375 15.375,4.59375 H 166.005 v 13.78125 z m 80.58375,0 q -19.3125,0 -27.375,-7.78125 -7.96875,-7.875 -7.96875,-26.8125 v -57.375 H 162.12 v -13.40625 h 28.03125 V 94.585937 l 17.25,-7.5 v 34.968753 h 39.1875 v 13.40625 h -39.1875 v 57.375 q 0,11.53125 4.40625,16.21875 4.40625,4.59375 15.375,4.59375 h 19.40625 v 13.78125 z"
       id="logo"
       style="font-size:192px;line-height:1;font-family:Hack;-inkscape-font-specification:Hack;text-align:center;letter-spacing:-35.01px;text-anchor:middle;white-space:pre;fill:#000000;fill-opacity:1"
       transform="matrix(2.1778272,0,0,2.7758898,-101.29978,-180.53036)"
       aria-label="tt"
       inkscape:label="logo"
       sodipodi:insensitive="true" />
  </g>
</svg>
