<?xml version="1.0" encoding="UTF-8" standalone="no"?>
<!-- Created with Inkscape (http://www.inkscape.org/) -->

<svg
   width="512"
   height="512"
   viewBox="0 0 512 512"
   version="1.1"
   id="svg1"
   xmlns="http://www.w3.org/2000/svg"
   xmlns:svg="http://www.w3.org/2000/svg"
   xmlns:rdf="http://www.w3.org/1999/02/22-rdf-syntax-ns#"
   xmlns:cc="http://creativecommons.org/ns#">
  <defs
     id="defs1" />
  <g
     id="main">
    <rect
       style="fill:#ffb4ff;stroke-width:1.00841"
       id="backgroud"
       width="512"
       height="512"
       x="0"
       y="0" />
    <path
       d="m 208.16933,469.46337 q -48.2334,0 -68.36967,-23.67061 -19.90213,-23.95581 -19.90213,-81.56383 V 189.69376 H 49.888843 V 148.91183 H 119.89753 V 65.351681 L 162.97979,42.536627 V 148.91183 h 97.87165 v 40.78193 h -97.87165 v 174.53517 q 0,35.07815 11.00471,49.33756 11.0047,13.97422 38.3994,13.97422 h 48.46754 v 41.92266 z m 201.25972,0 q -48.2334,0 -68.36968,-23.67061 -19.90213,-23.95581 -19.90213,-81.56383 V 189.69376 h -70.00867 v -40.78193 h 70.00867 V 65.351681 L 364.2395,42.536627 V 148.91183 h 97.87166 v 40.78193 H 364.2395 v 174.53517 q 0,35.07815 11.00471,49.33756 11.00471,13.97422 38.39941,13.97422 h 48.46754 v 41.92266 z"
       id="logo"
       style="fill:#000000;fill-opacity:1;stroke-width:2.49752" />
  </g>
  <metadata
     id="metadata1">
    <rdf:RDF>
      <cc:Work
         rdf:about="">
        <cc:license
           rdf:resource="http://artlibre.org/licence/lal" />
      </cc:Work>
      <cc:License
         rdf:about="http://artlibre.org/licence/lal">
        <cc:permits
           rdf:resource="http://creativecommons.org/ns#Reproduction" />
        <cc:permits
           rdf:resource="http://creativecommons.org/ns#Distribution" />
        <cc:permits
           rdf:resource="http://creativecommons.org/ns#DerivativeWorks" />
        <cc:requires
           rdf:resource="http://creativecommons.org/ns#ShareAlike" />
        <cc:requires
           rdf:resource="http://creativecommons.org/ns#Notice" />
        <cc:requires
           rdf:resource="http://creativecommons.org/ns#Attribution" />
      </cc:License>
    </rdf:RDF>
  </metadata>
</svg>
