<?xml version="1.0" encoding="UTF-8"?>
<svg width="512" height="512" version="1.1" viewBox="0 0 512 512" xml:space="preserve" xmlns="http://www.w3.org/2000/svg">
<path d="m246 256c0-93 52-174 128-216-35-19-75-30-118-30-136 0-246 110-246 246s110 246 246 246c43 0 83-11 118-30-76-42-128-123-128-216z" fill="#ffd500"/>
<path d="m502 256c0-93-52-174-128-216-76 42-128 123-128 216s52 174 128 216c76-42 128-123 128-216z" fill="#36c8eb"/>
<g fill="#3d3d3d">
	<path d="m379 31c-37-20-80-31-123-31-68 0-133 27-181 75-48 48-75 113-75 181s27 133 75 181c48 48 113 75 181 75 43 0 85-11 123-31 82-45 133-131 133-225s-51-180-133-225zm-123 460c-130 0-236-106-236-236s106-236 236-236c33 0 66 7.1 97 21-73 47-117 128-117 215s44 168 117 215c-30 14-63 21-97 21zm118-32c-73-42-118-120-118-204s45-162 118-204c73 42 118 120 118 204s-45 162-118 204z"/>
	<path d="m60 269c-0.26-4.2-0.4-8.4-0.4-13 0-5.6-4.6-10-10-10s-10 4.6-10 10c0 4.6 0.15 9.3 0.44 14 0.34 5.4 4.8 9.6 10 9.6 0.22 0 0.43-7e-3 0.65-0.021 5.6-0.36 9.9-5.2 9.5-11z"/>
	<path d="m145 419c-32-22-57-53-72-89-2.1-5.2-8.1-7.7-13-5.6-5.2 2.1-7.7 8.1-5.6 13 16 40 44 73 79 98 1.8 1.2 3.8 1.8 5.7 1.8 3.3 0 6.5-1.6 8.4-4.5 3.2-4.7 2-11-2.7-14z"/>
</g>
</svg>
