<?xml version="1.0" encoding="UTF-8" standalone="no"?>
<!-- Uploaded to: SVG Repo, www.svgrepo.com, Generator: SVG Repo Mixer Tools -->

<svg
   height="512"
   width="512"
   version="1.1"
   id="Layer_1"
   viewBox="0 0 512 512"
   xml:space="preserve"
   sodipodi:docname="auto_theme.svg"
   inkscape:version="1.4.3 (0d15f75042, 2025-12-25)"
   xmlns:inkscape="http://www.inkscape.org/namespaces/inkscape"
   xmlns:sodipodi="http://sodipodi.sourceforge.net/DTD/sodipodi-0.dtd"
   xmlns="http://www.w3.org/2000/svg"
   xmlns:svg="http://www.w3.org/2000/svg"
   xmlns:rdf="http://www.w3.org/1999/02/22-rdf-syntax-ns#"
   xmlns:cc="http://creativecommons.org/ns#"><defs
   id="defs5" /><sodipodi:namedview
   id="namedview5"
   pagecolor="#ffffff"
   bordercolor="#000000"
   borderopacity="0.25"
   inkscape:showpageshadow="2"
   inkscape:pageopacity="0.0"
   inkscape:pagecheckerboard="true"
   inkscape:deskcolor="#d1d1d1"
   showborder="false"
   inkscape:zoom="0.89625"
   inkscape:cx="400.55788"
   inkscape:cy="400.55788"
   inkscape:window-width="1556"
   inkscape:window-height="967"
   inkscape:window-x="44"
   inkscape:window-y="0"
   inkscape:window-maximized="1"
   inkscape:current-layer="Layer_1"
   showgrid="true" />
<path
   style="fill:#ffd500"
   d="m 245.801,256 c 0,-93.069 51.729,-174.05 128,-215.777 C 338.822,21.085 298.684,10.199 256,10.199 120.248,10.199 10.199,120.248 10.199,256 c 0,135.752 110.049,245.801 245.801,245.801 42.684,0 82.822,-10.886 117.801,-30.023 -76.271,-41.728 -128,-122.709 -128,-215.778 z"
   id="path1"
   sodipodi:insensitive="true" />
<path
   style="fill:#36c8eb"
   d="m 501.801,256 c 0,-93.069 -51.729,-174.05 -128,-215.777 -76.271,41.727 -128,122.709 -128,215.777 0,93.068 51.729,174.05 128,215.777 76.27,-41.727 128,-122.708 128,-215.777 z"
   id="path2"
   sodipodi:insensitive="true" />
<g
   id="g5"
   sodipodi:insensitive="true">
	<path
   style="fill:#3d3d3d"
   d="M 378.696,31.275 C 341.299,10.815 298.871,0 256,0 187.619,0 123.333,26.628 74.981,74.98 26.628,123.333 0,187.62 0,256 0,324.38 26.628,388.667 74.981,437.02 123.333,485.372 187.619,512 256,512 298.871,512 341.299,501.185 378.696,480.725 460.921,435.74 512,349.631 512,256 512,162.369 460.921,76.26 378.696,31.275 Z M 256,491.602 C 126.089,491.602 20.398,385.912 20.398,256 20.398,126.088 126.089,20.398 256,20.398 c 33.323,0 66.348,7.095 96.532,20.637 -72.575,46.998 -116.93,127.718 -116.93,214.965 0,87.247 44.355,167.967 116.931,214.965 -30.185,13.542 -63.21,20.637 -96.533,20.637 z M 373.801,460.067 C 300.995,417.965 256,340.296 256,256 256,171.704 300.995,94.035 373.801,51.933 446.607,94.035 491.602,171.704 491.602,256 c 0,84.296 -44.995,161.965 -117.801,204.067 z"
   id="path3" />
	<path
   style="fill:#3d3d3d"
   d="M 59.553,268.616 C 59.289,264.445 59.155,260.2 59.155,256 c 0,-5.633 -4.567,-10.199 -10.199,-10.199 -5.632,0 -10.199,4.566 -10.199,10.199 0,4.627 0.148,9.305 0.438,13.902 0.342,5.403 4.829,9.557 10.17,9.557 0.216,0 0.434,-0.007 0.653,-0.021 5.621,-0.355 9.889,-5.201 9.535,-10.822 z"
   id="path4" />
	<path
   style="fill:#3d3d3d"
   d="m 145.466,418.905 c -32.255,-21.93 -57.072,-52.535 -71.769,-88.506 -2.131,-5.213 -8.08,-7.713 -13.299,-5.584 -5.214,2.131 -7.714,8.085 -5.584,13.3 16.218,39.696 43.6,73.466 79.182,97.659 1.756,1.193 3.751,1.765 5.726,1.765 3.263,0 6.47,-1.564 8.443,-4.465 3.168,-4.659 1.958,-11.001 -2.699,-14.169 z"
   id="path5" />
</g>
<metadata
   id="metadata1"><rdf:RDF><cc:License
       rdf:about="http://artlibre.org/licence/lal"><cc:permits
         rdf:resource="http://creativecommons.org/ns#Reproduction" /><cc:permits
         rdf:resource="http://creativecommons.org/ns#Distribution" /><cc:permits
         rdf:resource="http://creativecommons.org/ns#DerivativeWorks" /><cc:requires
         rdf:resource="http://creativecommons.org/ns#ShareAlike" /><cc:requires
         rdf:resource="http://creativecommons.org/ns#Notice" /><cc:requires
         rdf:resource="http://creativecommons.org/ns#Attribution" /></cc:License><cc:Work
       rdf:about=""><cc:license
         rdf:resource="http://artlibre.org/licence/lal" /></cc:Work></rdf:RDF></metadata></svg>
