<?xml version="1.0" encoding="UTF-8"?>
<svg width="512" height="512" version="1.1" viewBox="0 0 512 512" xml:space="preserve" xmlns="http://www.w3.org/2000/svg">
<path d="m220 256c0-106 77-195 178-212-36-21-79-34-124-34-136 0-246 110-246 246s110 246 246 246c45 0 88-12 124-34-101-17-178-106-178-212z" fill="#ffd500"/>

	<path d="m400 458c-98-17-170-102-170-202s71-185 170-202c4.2-0.73 7.5-4 8.3-8.2 0.77-4.2-1.2-8.5-4.9-11-39-23-84-35-130-35-68 0-133 27-181 75-48 48-75 113-75 181s27 133 75 181c48 48 113 75 181 75 46 0 90-12 130-35 3.7-2.2 5.6-6.4 4.9-11-0.77-4.2-4.1-7.5-8.3-8.2zm-126 34c-130 0-236-106-236-236s106-236 236-236c33 0 65 6.9 95 20-41 13-78 37-106 70-35 41-54 92-54 146s19 105 54 146c28 33 65 57 106 70-30 13-62 20-95 20z" fill="#554d1d"/>
	<path d="m77 269c-0.26-4.2-0.4-8.4-0.4-13 0-5.6-4.6-10-10-10s-10 4.6-10 10c0 4.6 0.15 9.3 0.44 14 0.34 5.4 4.8 9.6 10 9.6 0.22 0 0.43-7e-3 0.65-0.02 5.6-0.36 9.9-5.2 9.5-11z" fill="#3d3d3d"/>
	<path d="m163 419c-32-22-57-53-72-89-2.1-5.2-8.1-7.7-13-5.6-5.2 2.1-7.7 8.1-5.6 13 16 40 44 73 79 98 1.8 1.2 3.8 1.8 5.7 1.8 3.3 0 6.5-1.6 8.4-4.5 3.2-4.7 2-11-2.7-14z" fill="#3d3d3d"/><g fill="#36c8eb">
	<path d="m453 254v-16h16c5.6 0 10-4.6 10-10s-4.6-10-10-10h-16v-16c0-5.6-4.6-10-10-10s-10 4.6-10 10v16h-16c-5.6 0-10 4.6-10 10s4.6 10 10 10h16v16c0 5.6 4.6 10 10 10 5.6 0 10-4.6 10-10z"/>
	<path d="m352 352c5.6 0 10-4.6 10-10v-11h11c5.6 0 10-4.6 10-10s-4.6-10-10-10h-11v-11c0-5.6-4.6-10-10-10s-10 4.6-10 10v11h-11c-5.6 0-10 4.6-10 10s4.6 10 10 10h11v11c-1e-3 5.6 4.6 10 10 10z"/>
	<path d="m484 358h-5.1v-5.1c0-5.6-4.6-10-10-10s-10 4.6-10 10v5.1h-5.1c-5.6 0-10 4.6-10 10s4.6 10 10 10h5.1v5.1c0 5.6 4.6 10 10 10s10-4.6 10-10v-5.1h5.1c5.6 0 10-4.6 10-10s-4.6-10-10-10z"/>
</g>
</svg>
