<?xml version="1.0" encoding="UTF-8" standalone="no"?>
<!-- Uploaded to: SVG Repo, www.svgrepo.com, Generator: SVG Repo Mixer Tools -->

<svg
   height="512"
   width="512"
   version="1.1"
   id="Layer_1"
   viewBox="0 0 512 512"
   xml:space="preserve"
   sodipodi:docname="moon.svg"
   inkscape:version="1.4.3 (0d15f75042, 2025-12-25)"
   xmlns:inkscape="http://www.inkscape.org/namespaces/inkscape"
   xmlns:sodipodi="http://sodipodi.sourceforge.net/DTD/sodipodi-0.dtd"
   xmlns="http://www.w3.org/2000/svg"
   xmlns:svg="http://www.w3.org/2000/svg"
   xmlns:rdf="http://www.w3.org/1999/02/22-rdf-syntax-ns#"
   xmlns:cc="http://creativecommons.org/ns#"><defs
   id="defs7" /><sodipodi:namedview
   id="namedview7"
   pagecolor="#ffffff"
   bordercolor="#000000"
   borderopacity="0.25"
   inkscape:showpageshadow="2"
   inkscape:pageopacity="0.0"
   inkscape:pagecheckerboard="true"
   inkscape:deskcolor="#d1d1d1"
   showborder="false"
   inkscape:zoom="0.89625"
   inkscape:cx="265.55091"
   inkscape:cy="265.55091"
   inkscape:window-width="1556"
   inkscape:window-height="967"
   inkscape:window-x="44"
   inkscape:window-y="0"
   inkscape:window-maximized="1"
   inkscape:current-layer="Layer_1" />
<path
   style="fill:#ffd500"
   d="m 219.793,256 c 0,-106.304 77.081,-194.595 178.399,-212.056 -36.48,-21.438 -78.971,-33.745 -124.344,-33.745 -135.752,0 -245.8,110.049 -245.8,245.801 0,135.752 110.048,245.801 245.801,245.801 45.372,0 87.863,-12.307 124.344,-33.745 C 296.874,450.595 219.793,362.304 219.793,256 Z"
   id="path1"
   sodipodi:insensitive="true" />
<g
   id="g7">
	<path
   style="fill:#554d1d;fill-opacity:1"
   d="M 399.924,458.005 C 301.459,441.035 229.992,356.08 229.992,256 c 0,-100.08 71.467,-185.035 169.932,-202.005 4.218,-0.727 7.534,-4.011 8.302,-8.223 C 408.994,41.561 407.05,37.319 403.36,35.15 364.227,12.155 319.443,0 273.849,0 205.468,0 141.181,26.628 92.83,74.981 44.477,123.333 17.849,187.619 17.849,256 c 0,68.381 26.628,132.667 74.981,181.019 48.351,48.353 112.638,74.981 181.019,74.981 45.595,0 90.378,-12.155 129.511,-35.151 3.69,-2.169 5.634,-6.411 4.866,-10.622 -0.769,-4.211 -4.084,-7.495 -8.302,-8.222 z M 273.849,491.602 C 143.938,491.602 38.247,385.912 38.247,256 c 0,-129.912 105.69,-235.602 235.602,-235.602 32.902,0 65.338,6.873 95.167,20.039 -40.885,12.529 -77.747,36.647 -105.786,69.61 -34.587,40.663 -53.636,92.496 -53.636,145.953 0,53.457 19.049,105.29 53.636,145.953 28.039,32.963 64.902,57.081 105.786,69.61 -29.829,13.165 -62.266,20.039 -95.167,20.039 z"
   id="path2" />
	<path
   style="fill:#3d3d3d"
   d="M 77.402,268.615 C 77.138,264.445 77.004,260.2 77.004,256 c 0,-5.632 -4.567,-10.199 -10.199,-10.199 -5.632,0 -10.199,4.567 -10.199,10.199 0,4.627 0.148,9.305 0.438,13.903 0.342,5.402 4.829,9.556 10.17,9.556 0.216,0 0.434,-0.007 0.654,-0.02 5.619,-0.356 9.888,-5.201 9.534,-10.824 z"
   id="path3" />
	<path
   style="fill:#3d3d3d"
   d="M 163.315,418.906 C 131.06,396.975 106.243,366.37 91.546,330.399 c -2.13,-5.214 -8.08,-7.714 -13.299,-5.584 -5.214,2.131 -7.714,8.085 -5.584,13.299 16.218,39.696 43.599,73.466 79.182,97.66 1.756,1.194 3.751,1.765 5.726,1.765 3.263,0 6.47,-1.564 8.443,-4.465 3.167,-4.657 1.958,-11.001 -2.699,-14.168 z"
   id="path4" />
	<path
   style="fill:#36c8eb;fill-opacity:1"
   d="m 453.355,253.96 v -16.319 h 16.319 c 5.632,0 10.199,-4.567 10.199,-10.199 0,-5.632 -4.567,-10.199 -10.199,-10.199 h -16.319 v -16.319 c 0,-5.632 -4.567,-10.199 -10.199,-10.199 -5.632,0 -10.199,4.567 -10.199,10.199 v 16.319 h -16.319 c -5.632,0 -10.199,4.567 -10.199,10.199 0,5.632 4.567,10.199 10.199,10.199 h 16.319 v 16.319 c 0,5.632 4.567,10.199 10.199,10.199 5.631,0 10.199,-4.567 10.199,-10.199 z"
   id="path5" />
	<path
   style="fill:#36c8eb;fill-opacity:1"
   d="m 351.873,351.873 c 5.632,0 10.199,-4.567 10.199,-10.199 v -10.709 h 10.709 c 5.632,0 10.199,-4.567 10.199,-10.199 0,-5.632 -4.567,-10.199 -10.199,-10.199 h -10.709 v -10.709 c 0,-5.632 -4.567,-10.199 -10.199,-10.199 -5.632,0 -10.199,4.567 -10.199,10.199 v 10.709 h -10.709 c -5.632,0 -10.199,4.567 -10.199,10.199 0,5.632 4.567,10.199 10.199,10.199 h 10.709 v 10.709 c -10e-4,5.631 4.567,10.199 10.199,10.199 z"
   id="path6" />
	<path
   style="fill:#36c8eb;fill-opacity:1"
   d="m 483.952,357.992 h -5.1 v -5.1 c 0,-5.632 -4.567,-10.199 -10.199,-10.199 -5.632,0 -10.199,4.567 -10.199,10.199 v 5.1 h -5.1 c -5.632,0 -10.199,4.567 -10.199,10.199 0,5.632 4.567,10.199 10.199,10.199 h 5.1 v 5.1 c 0,5.632 4.567,10.199 10.199,10.199 5.632,0 10.199,-4.567 10.199,-10.199 v -5.1 h 5.1 c 5.632,0 10.199,-4.567 10.199,-10.199 0,-5.632 -4.567,-10.199 -10.199,-10.199 z"
   id="path7" />
</g>
<metadata
   id="metadata1"><rdf:RDF><cc:License
       rdf:about="http://artlibre.org/licence/lal"><cc:permits
         rdf:resource="http://creativecommons.org/ns#Reproduction" /><cc:permits
         rdf:resource="http://creativecommons.org/ns#Distribution" /><cc:permits
         rdf:resource="http://creativecommons.org/ns#DerivativeWorks" /><cc:requires
         rdf:resource="http://creativecommons.org/ns#ShareAlike" /><cc:requires
         rdf:resource="http://creativecommons.org/ns#Notice" /><cc:requires
         rdf:resource="http://creativecommons.org/ns#Attribution" /></cc:License><cc:Work
       rdf:about=""><cc:license
         rdf:resource="zz" /></cc:Work></rdf:RDF></metadata></svg>
