<?xml version="1.0" encoding="UTF-8" standalone="no"?>
<!-- Uploaded to: SVG Repo, www.svgrepo.com, Generator: SVG Repo Mixer Tools -->

<svg
   height="512"
   width="512"
   version="1.1"
   id="Layer_1"
   viewBox="0 0 512 512"
   xml:space="preserve"
   sodipodi:docname="sun.svg"
   inkscape:version="1.4.3 (0d15f75042, 2025-12-25)"
   xmlns:inkscape="http://www.inkscape.org/namespaces/inkscape"
   xmlns:sodipodi="http://sodipodi.sourceforge.net/DTD/sodipodi-0.dtd"
   xmlns="http://www.w3.org/2000/svg"
   xmlns:svg="http://www.w3.org/2000/svg"
   xmlns:rdf="http://www.w3.org/1999/02/22-rdf-syntax-ns#"
   xmlns:cc="http://creativecommons.org/ns#"><defs
   id="defs18" /><sodipodi:namedview
   id="namedview18"
   pagecolor="#ffffff"
   bordercolor="#000000"
   borderopacity="0.25"
   inkscape:showpageshadow="2"
   inkscape:pageopacity="0.0"
   inkscape:pagecheckerboard="true"
   inkscape:deskcolor="#d1d1d1"
   showborder="false"
   inkscape:zoom="0.89625"
   inkscape:cx="400.55788"
   inkscape:cy="95.95537"
   inkscape:window-width="1556"
   inkscape:window-height="967"
   inkscape:window-x="44"
   inkscape:window-y="0"
   inkscape:window-maximized="1"
   inkscape:current-layer="Layer_1" />
<circle
   style="fill:#ffd500"
   cx="256"
   cy="256"
   r="197.161"
   id="circle1" />
<g
   id="g18">
	<path
   style="fill:#3d3d3d"
   d="M 256,463.484 C 141.593,463.484 48.516,370.407 48.516,256 48.516,141.593 141.593,48.516 256,48.516 c 114.407,0 207.484,93.077 207.484,207.484 0,114.407 -93.077,207.484 -207.484,207.484 z M 256,69.161 C 152.977,69.161 69.161,152.977 69.161,256 69.161,359.023 152.977,442.839 256,442.839 359.023,442.839 442.839,359.023 442.839,256 442.839,152.977 359.023,69.161 256,69.161 Z"
   id="path1" />
	<path
   style="fill:#3d3d3d"
   d="m 256,36.129 c -5.701,0 -10.323,-4.621 -10.323,-10.323 V 10.323 C 245.677,4.621 250.299,0 256,0 c 5.701,0 10.323,4.621 10.323,10.323 v 15.484 c 0,5.701 -4.622,10.322 -10.323,10.322 z"
   id="path2" />
	<path
   style="fill:#3d3d3d"
   d="m 167.913,53.655 c -4.051,0 -7.894,-2.4 -9.541,-6.375 l -5.925,-14.305 c -2.181,-5.268 0.32,-11.305 5.587,-13.486 5.266,-2.183 11.305,0.32 13.486,5.587 l 5.925,14.305 c 2.181,5.268 -0.32,11.305 -5.587,13.486 -1.291,0.534 -2.63,0.788 -3.945,0.788 z"
   id="path3" />
	<path
   style="fill:#3d3d3d"
   d="m 92.97,103.293 c -2.642,0 -5.284,-1.007 -7.299,-3.023 L 66.98,81.579 c -4.031,-4.031 -4.031,-10.567 0,-14.599 4.031,-4.031 10.567,-4.031 14.599,0 l 18.691,18.691 c 4.031,4.031 4.031,10.567 0,14.599 -2.016,2.015 -4.657,3.023 -7.3,3.023 z"
   id="path4" />
	<path
   style="fill:#3d3d3d"
   d="m 43.325,178.234 c -1.316,0 -2.654,-0.253 -3.946,-0.789 L 25.074,171.52 c -5.268,-2.181 -7.769,-8.22 -5.587,-13.486 2.182,-5.268 8.222,-7.767 13.486,-5.587 l 14.305,5.925 c 5.268,2.181 7.769,8.22 5.587,13.486 -1.645,3.976 -5.49,6.376 -9.54,6.376 z"
   id="path5" />
	<path
   style="fill:#3d3d3d"
   d="M 25.806,266.323 H 10.323 C 4.621,266.323 0,261.701 0,256 0,250.299 4.621,245.677 10.323,245.677 h 15.484 c 5.701,0 10.323,4.621 10.323,10.323 -0.001,5.701 -4.622,10.323 -10.324,10.323 z"
   id="path6" />
	<path
   style="fill:#3d3d3d"
   d="m 29.028,360.342 c -4.051,0 -7.894,-2.4 -9.541,-6.375 -2.182,-5.268 0.32,-11.305 5.587,-13.486 l 14.305,-5.925 c 5.266,-2.182 11.305,0.32 13.486,5.587 2.181,5.267 -0.32,11.305 -5.587,13.486 l -14.305,5.925 c -1.291,0.535 -2.629,0.788 -3.945,0.788 z"
   id="path7" />
	<path
   style="fill:#3d3d3d"
   d="m 82.279,440.043 c -2.642,0 -5.284,-1.008 -7.299,-3.023 -4.031,-4.031 -4.031,-10.567 0,-14.599 l 10.949,-10.949 c 4.031,-4.031 10.567,-4.031 14.599,0 4.031,4.031 4.031,10.567 0,14.599 L 89.579,437.02 c -2.016,2.015 -4.657,3.023 -7.3,3.023 z"
   id="path8" />
	<path
   style="fill:#3d3d3d"
   d="m 156.797,505.812 c -1.316,0 -2.654,-0.253 -3.946,-0.789 -5.268,-2.181 -7.768,-8.22 -5.587,-13.486 l 10.94,-26.412 c 2.181,-5.268 8.221,-7.768 13.486,-5.587 5.268,2.181 7.768,8.22 5.587,13.486 l -10.939,26.413 c -1.646,3.976 -5.491,6.375 -9.541,6.375 z"
   id="path9" />
	<path
   style="fill:#3d3d3d"
   d="m 256,512 c -5.701,0 -10.323,-4.621 -10.323,-10.323 v -15.484 c 0,-5.701 4.621,-10.323 10.323,-10.323 5.701,0 10.323,4.621 10.323,10.323 v 15.484 C 266.323,507.379 261.701,512 256,512 Z"
   id="path10" />
	<path
   style="fill:#3d3d3d"
   d="m 350.021,493.302 c -4.051,0 -7.894,-2.4 -9.541,-6.375 l -5.925,-14.305 c -2.181,-5.268 0.32,-11.305 5.587,-13.486 5.266,-2.184 11.305,0.32 13.486,5.587 l 5.925,14.305 c 2.181,5.268 -0.32,11.305 -5.587,13.486 -1.291,0.535 -2.63,0.788 -3.945,0.788 z"
   id="path11" />
	<path
   style="fill:#3d3d3d"
   d="m 429.721,440.043 c -2.642,0 -5.284,-1.008 -7.299,-3.023 l -10.949,-10.949 c -4.031,-4.031 -4.031,-10.567 0,-14.599 4.031,-4.031 10.567,-4.031 14.599,0 l 10.949,10.949 c 4.031,4.031 4.031,10.567 0,14.599 -2.017,2.015 -4.659,3.023 -7.3,3.023 z"
   id="path12" />
	<path
   style="fill:#3d3d3d"
   d="m 495.336,365.463 c -1.316,0 -2.654,-0.253 -3.946,-0.789 l -26.27,-10.882 c -5.268,-2.181 -7.769,-8.22 -5.587,-13.486 2.182,-5.267 8.221,-7.768 13.486,-5.587 l 26.27,10.882 c 5.268,2.181 7.769,8.22 5.587,13.486 -1.646,3.977 -5.489,6.376 -9.54,6.376 z"
   id="path13" />
	<path
   style="fill:#3d3d3d"
   d="m 501.677,266.323 h -15.484 c -5.701,0 -10.323,-4.621 -10.323,-10.323 0,-5.701 4.621,-10.323 10.323,-10.323 h 15.484 c 5.701,0 10.323,4.621 10.323,10.323 0,5.701 -4.621,10.323 -10.323,10.323 z"
   id="path14" />
	<path
   style="fill:#3d3d3d"
   d="m 468.675,178.234 c -4.051,0 -7.894,-2.4 -9.541,-6.375 -2.182,-5.268 0.32,-11.305 5.587,-13.486 l 14.305,-5.925 c 5.265,-2.182 11.305,0.32 13.486,5.587 2.181,5.267 -0.32,11.305 -5.587,13.486 l -14.305,5.925 c -1.29,0.535 -2.629,0.788 -3.945,0.788 z"
   id="path15" />
	<path
   style="fill:#3d3d3d"
   d="m 456.258,66.065 c -2.642,0 -5.284,-1.007 -7.299,-3.023 -4.031,-4.031 -4.031,-10.567 0,-14.599 l 3.559,-3.559 c 4.031,-4.031 10.567,-4.031 14.599,0 4.031,4.031 4.031,10.567 0,14.599 l -3.559,3.559 c -2.016,2.015 -4.658,3.023 -7.3,3.023 z"
   id="path16" />
	<path
   style="fill:#3d3d3d"
   d="m 419.643,102.681 c -2.642,0 -5.283,-1.007 -7.299,-3.023 -4.031,-4.031 -4.032,-10.567 0,-14.598 L 426.25,71.153 c 4.031,-4.031 10.567,-4.032 14.598,0 4.031,4.032 4.032,10.567 0,14.598 l -13.906,13.906 c -2.016,2.015 -4.658,3.024 -7.299,3.024 z"
   id="path17" />
	<path
   style="fill:#3d3d3d"
   d="m 344.087,53.655 c -1.316,0 -2.654,-0.253 -3.946,-0.789 -5.268,-2.181 -7.768,-8.22 -5.587,-13.486 l 5.925,-14.305 c 2.182,-5.268 8.222,-7.769 13.486,-5.587 5.268,2.181 7.768,8.22 5.587,13.486 l -5.925,14.305 c -1.646,3.976 -5.49,6.376 -9.54,6.376 z"
   id="path18" />
</g>
<metadata
   id="metadata1"><rdf:RDF><cc:License
       rdf:about="http://artlibre.org/licence/lal"><cc:permits
         rdf:resource="http://creativecommons.org/ns#Reproduction" /><cc:permits
         rdf:resource="http://creativecommons.org/ns#Distribution" /><cc:permits
         rdf:resource="http://creativecommons.org/ns#DerivativeWorks" /><cc:requires
         rdf:resource="http://creativecommons.org/ns#ShareAlike" /><cc:requires
         rdf:resource="http://creativecommons.org/ns#Notice" /><cc:requires
         rdf:resource="http://creativecommons.org/ns#Attribution" /></cc:License><cc:Work
       rdf:about=""><cc:license
         rdf:resource="http://artlibre.org/licence/lal" /></cc:Work></rdf:RDF></metadata></svg>
