<?xml version="1.0" encoding="iso-8859-1"?>
<!-- Uploaded to: SVG Repo, www.svgrepo.com, Generator: SVG Repo Mixer Tools -->
<svg height="800px" width="800px" version="1.1" id="Layer_1" xmlns="http://www.w3.org/2000/svg" xmlns:xlink="http://www.w3.org/1999/xlink" 
	 viewBox="0 0 506.4 506.4" xml:space="preserve">
<circle style="fill:#FFC52F;" cx="253.2" cy="253.2" r="249.2"/>
<g>
	<path style="fill:#F4EFEF;" d="M331.6,340c12.8,8.8,21.6,3.2,21.6-12.4V179.2c0-15.6-8.8-21.2-21.6-12.4l-101.2,70.8
		c-12.8,8.8-13.2,23.2-0.4,32L331.6,340z"/>
	<path style="fill:#F4EFEF;" d="M197.2,177.2v155.2c0,6.4-7.6,12.8-14,12.8h-8.4c-6.4,0-9.6-6.4-9.6-12.8V174c0-6.4,3.2-8.8,9.6-8.8
		h8.4c6.4,0,13.6,5.6,13.6,12"/>
</g>
<path d="M253.2,506.4C113.6,506.4,0,392.8,0,253.2S113.6,0,253.2,0s253.2,113.6,253.2,253.2S392.8,506.4,253.2,506.4z M253.2,8
	C118,8,8,118,8,253.2s110,245.2,245.2,245.2s245.2-110,245.2-245.2S388.4,8,253.2,8z"/>
<path d="M340,348c-3.6,0-8-1.6-12.8-4.8l0,0l-100.8-70.8c-6.8-4.8-10.8-11.6-10.8-18.8c0-7.6,4.4-14.8,11.6-20l100-70.8
	c7.2-4.8,13.2-6,18-3.6c5.2,2.8,8,9.2,8,19.2v148.4c0,10-2.8,16.8-8,19.2C343.6,347.6,342,348,340,348z M332,336.4
	c4.4,2.8,8,4,9.6,3.2c2.4-1.2,3.6-5.6,3.6-12.4V178.8c0-6.4-1.2-11.2-3.6-12.4c-2-1.2-5.6,0-9.6,3.2l-100,70.8
	c-5.2,3.6-8.4,8.4-8.4,13.2c0,4.4,2.8,8.8,7.2,12L332,336.4z"/>
<path d="M185.2,350.4h-6.8c-7.2,0-13.2-5.6-13.2-12.8V169.2c0-6.8,6.4-12.8,13.6-12.8h5.6c6.8,0,12.4,6,12.4,13.2V338
	C197.2,344.8,192,350.4,185.2,350.4z M178.8,164c-2.8,0-5.6,2.4-5.6,4.8v168.4c0,2.4,2.4,4.8,5.2,4.8h6.8c2.8,0,4-2.4,4-4.8v-168
	c0-2.8-2-5.2-4.4-5.2H178.8z"/>
</svg>