<?xml version="1.0" encoding="UTF-8"?>
<svg width="512" height="512" version="1.1" viewBox="0 0 512 512" xml:space="preserve" xmlns="http://www.w3.org/2000/svg">
<circle cx="256" cy="256" r="197" fill="#ffd500"/>
<g fill="#3d3d3d">
	<path d="m256 463c-114 0-207-93-207-207s93-207 207-207 207 93 207 207-93 207-207 207zm0-394c-103 0-187 84-187 187s84 187 187 187 187-84 187-187-84-187-187-187z"/>
	<path d="m256 36c-5.7 0-10-4.6-10-10v-15c0-5.7 4.6-10 10-10s10 4.6 10 10v15c0 5.7-4.6 10-10 10z"/>
	<path d="m168 54c-4.1 0-7.9-2.4-9.5-6.4l-5.9-14c-2.2-5.3 0.32-11 5.6-13 5.3-2.2 11 0.32 13 5.6l5.9 14c2.2 5.3-0.32 11-5.6 13-1.3 0.53-2.6 0.79-3.9 0.79z"/>
	<path d="m93 103c-2.6 0-5.3-1-7.3-3l-19-19c-4-4-4-11 0-15 4-4 11-4 15 0l19 19c4 4 4 11 0 15-2 2-4.7 3-7.3 3z"/>
	<path d="m43 178c-1.3 0-2.7-0.25-3.9-0.79l-14-5.9c-5.3-2.2-7.8-8.2-5.6-13 2.2-5.3 8.2-7.8 13-5.6l14 5.9c5.3 2.2 7.8 8.2 5.6 13-1.6 4-5.5 6.4-9.5 6.4z"/>
	<path d="m26 266h-15c-5.7 0-10-4.6-10-10s4.6-10 10-10h15c5.7 0 10 4.6 10 10-1e-3 5.7-4.6 10-10 10z"/>
	<path d="m29 360c-4.1 0-7.9-2.4-9.5-6.4-2.2-5.3 0.32-11 5.6-13l14-5.9c5.3-2.2 11 0.32 13 5.6s-0.32 11-5.6 13l-14 5.9c-1.3 0.54-2.6 0.79-3.9 0.79z"/>
	<path d="m82 440c-2.6 0-5.3-1-7.3-3-4-4-4-11 0-15l11-11c4-4 11-4 15 0 4 4 4 11 0 15l-11 11c-2 2-4.7 3-7.3 3z"/>
	<path d="m157 506c-1.3 0-2.7-0.25-3.9-0.79-5.3-2.2-7.8-8.2-5.6-13l11-26c2.2-5.3 8.2-7.8 13-5.6 5.3 2.2 7.8 8.2 5.6 13l-11 26c-1.6 4-5.5 6.4-9.5 6.4z"/>
	<path d="m256 512c-5.7 0-10-4.6-10-10v-15c0-5.7 4.6-10 10-10 5.7 0 10 4.6 10 10v15c0 5.7-4.6 10-10 10z"/>
	<path d="m350 493c-4.1 0-7.9-2.4-9.5-6.4l-5.9-14c-2.2-5.3 0.32-11 5.6-13 5.3-2.2 11 0.32 13 5.6l5.9 14c2.2 5.3-0.32 11-5.6 13-1.3 0.54-2.6 0.79-3.9 0.79z"/>
	<path d="m430 440c-2.6 0-5.3-1-7.3-3l-11-11c-4-4-4-11 0-15 4-4 11-4 15 0l11 11c4 4 4 11 0 15-2 2-4.7 3-7.3 3z"/>
	<path d="m495 365c-1.3 0-2.7-0.25-3.9-0.79l-26-11c-5.3-2.2-7.8-8.2-5.6-13 2.2-5.3 8.2-7.8 13-5.6l26 11c5.3 2.2 7.8 8.2 5.6 13-1.6 4-5.5 6.4-9.5 6.4z"/>
	<path d="m502 266h-15c-5.7 0-10-4.6-10-10 0-5.7 4.6-10 10-10h15c5.7 0 10 4.6 10 10 0 5.7-4.6 10-10 10z"/>
	<path d="m469 178c-4.1 0-7.9-2.4-9.5-6.4-2.2-5.3 0.32-11 5.6-13l14-5.9c5.3-2.2 11 0.32 13 5.6s-0.32 11-5.6 13l-14 5.9c-1.3 0.54-2.6 0.79-3.9 0.79z"/>
	<path d="m456 66c-2.6 0-5.3-1-7.3-3-4-4-4-11 0-15l3.6-3.6c4-4 11-4 15 0 4 4 4 11 0 15l-3.6 3.6c-2 2-4.7 3-7.3 3z"/>
	<path d="m420 103c-2.6 0-5.3-1-7.3-3-4-4-4-11 0-15l14-14c4-4 11-4 15 0s4 11 0 15l-14 14c-2 2-4.7 3-7.3 3z"/>
	<path d="m344 54c-1.3 0-2.7-0.25-3.9-0.79-5.3-2.2-7.8-8.2-5.6-13l5.9-14c2.2-5.3 8.2-7.8 13-5.6 5.3 2.2 7.8 8.2 5.6 13l-5.9 14c-1.6 4-5.5 6.4-9.5 6.4z"/>
</g>
</svg>
